<?xml version="1.0" standalone="no"?>
<!DOCTYPE svg PUBLIC "-//W3C//DTD SVG 1.1//EN" "http://www.w3.org/Graphics/SVG/1.1/DTD/svg11.dtd" >
<svg xmlns="http://www.w3.org/2000/svg">
<metadata>
This is a custom SVG webfont generated by Font Squirrel.
</metadata>
<defs>
<font id="webfont4qVf1SxO" horiz-adv-x="518" >
<font-face units-per-em="2048" ascent="1638" descent="-410" />
<missing-glyph horiz-adv-x="332" />
<glyph unicode=" "  horiz-adv-x="332" />
<glyph unicode="&#x09;" horiz-adv-x="332" />
<glyph unicode="&#xa0;" horiz-adv-x="332" />
<glyph unicode="!" horiz-adv-x="330" d="M224 1409q28 -21 45 -131q13 -141 13 -254q0 -403 -70 -638q-21 -33 -29 -33h-16q-49 0 -49 385q-45 410 -45 479q0 192 151 192zM192 296q61 0 82 -86v-4q0 -66 -107 -86q-54 0 -65 82v20q0 48 57 70z" />
<glyph unicode="&#x22;" horiz-adv-x="430" d="M298 1453q68 -12 68 -79v-10q0 -73 -56 -167h-20q-44 49 -44 133q0 107 52 123zM145 1461q68 -12 68 -79v-10q0 -73 -56 -167h-20q-44 49 -44 133q0 107 52 123z" />
<glyph unicode="#" horiz-adv-x="1265" d="M531 1356q98 0 98 -142q0 -42 -11 -115q117 -21 181 -29v2q9 96 29 142q51 142 150 142t99 -141q0 -71 -23 -182h2q171 -49 171 -160q0 -98 -142 -98q-33 0 -94 8l-47 -178q75 -8 115 -19q168 -53 168 -162q0 -97 -141 -97q-80 0 -193 26q-23 -78 -46 -111 q-47 -78 -101 -78t-68 86l-2 25q0 28 15 128h-2l-224 60q-17 -109 -38 -165q-56 -134 -129 -134q-42 0 -63 58q-6 23 -6 45v15q0 29 29 223h-2q-35 2 -132 43q-89 54 -89 109q0 57 89 69l22 2q29 0 151 -18v2q19 85 38 227q-92 13 -153 33q-147 57 -147 134q0 42 58 63 q23 6 45 6h15q34 0 208 -27q48 208 170 208zM570 883l-57 -210q140 -29 217 -41q30 152 37 199z" />
<glyph unicode="$" horiz-adv-x="948" />
<glyph unicode="%" horiz-adv-x="1566" />
<glyph unicode="&#x26;" horiz-adv-x="1313" d="M593 1466q118 0 226 -85q116 -95 116 -221v-5q0 -144 -162 -262q-73 -50 -146 -81l-52 -22q72 -106 189 -236q51 -62 224 -231h1q21 47 21 91q0 118 -124 233q-16 17 -16 24v2q0 14 24 31q14 4 26 4q70 0 151 -87l22 -28q60 -92 60 -193q0 -96 -51 -180v-1 q94 -65 159 -68q71 -5 71 -10q7 -8 7 -13v-1q0 -26 -58 -56q-41 -16 -84 -16q-88 0 -186 64h-1q-155 -119 -412 -119h-8q-261 0 -394 190q-69 109 -69 237q0 169 112 319q19 26 78 83l20 16l20 15l-24 54q-51 121 -51 204v22q0 100 60 195q62 86 159 117q49 14 92 14z M434 1121v-3q0 -74 53 -183h1q126 49 193 99q85 65 85 122v5q0 65 -98 119q-41 21 -81 21q-82 0 -130 -83q-23 -48 -23 -97zM441 718q-59 -50 -83 -86q-71 -101 -71 -209q0 -117 85 -195q85 -71 212 -71h25q163 0 275 61v1q-142 127 -252 254q-114 132 -174 221z" />
<glyph unicode="'" horiz-adv-x="234" d="M105 1461q68 -12 68 -79v-10q0 -73 -56 -167h-20q-44 49 -44 133q0 107 52 123z" />
<glyph unicode="(" horiz-adv-x="756" d="M547 1474q52 0 72 -44l3 -16v-2q0 -40 -90 -81q-1 -3 -49 -35q-55 -37 -133 -112l-31 -35q-130 -163 -140 -421q0 -280 279 -535l37 -31q67 -48 123 -60q55 -40 55 -78q0 -28 -33 -40q-18 -4 -33 -4q-84 0 -206 69q-57 37 -96 73q-76 71 -102 110q-176 235 -176 531 q0 366 339 622q129 89 175 89h6z" />
<glyph unicode=")" horiz-adv-x="746" d="M167 1464q46 0 175 -89q339 -256 339 -622q0 -296 -176 -531q-26 -39 -102 -110q-39 -36 -96 -73q-122 -69 -206 -69q-15 0 -33 4q-33 12 -33 40q12 48 75 78q46 22 113 70l37 31q269 245 269 525q0 248 -130 411l-31 45q-78 75 -133 112q-48 32 -49 35q-100 41 -100 81 v2l3 16q20 44 72 44h6z" />
<glyph unicode="*" horiz-adv-x="407" d="M191 1420q48 -101 51 -101l110 -16l-81 -79l19 -112h-1l-100 51l-99 -51v2l19 110l-81 79q107 14 113 17l48 100h2z" />
<glyph unicode="+" horiz-adv-x="920" />
<glyph unicode="," horiz-adv-x="414" d="M200 550q65 0 111 -78q21 -43 21 -87v-15q0 -50 -48 -84q-46 -37 -96 -37q-41 0 -76 24q59 0 100 34q22 24 22 50v12q0 10 -3 23h-2q0 -22 -42 -56q-23 -12 -39 -12h-3q-45 0 -79 55q-9 19 -9 37q0 59 82 109q32 14 61 25z" />
<glyph unicode="-" />
<glyph unicode="." horiz-adv-x="369" d="M110 493q54 -7 69 -64q34 42 65 52l25 3q61 -14 73 -60q3 -10 3 -21q0 -43 -51 -89q-16 -19 -145 -70v1l1 2l-2 11q-9 25 -49 67q-47 45 -54 69l-4 15q-3 11 -3 26q4 46 42 55q9 3 30 3z" />
<glyph unicode="/" horiz-adv-x="701" />
<glyph unicode="0" horiz-adv-x="709" d="M337 1462q252 0 307 -328q15 -96 15 -192v-42q0 -219 -76 -366q-77 -135 -214 -135q-223 0 -300 387q-19 118 -19 211q0 150 66 309q77 156 221 156zM190 1046q0 -163 56 -356q59 -172 129 -172q61 0 106 108q45 128 45 303v15q0 114 -30 259q-15 54 -46 87 q-51 44 -101 44h-11q-71 0 -115 -96q-33 -88 -33 -192z" />
<glyph unicode="1" horiz-adv-x="836" d="M382 1471q54 0 64 -666l3 -220l-1 -74h1q153 11 230 11h19q75 0 75 -14q13 -23 13 -37q0 -45 -215 -54q-166 -7 -275 -7q-220 0 -244 34l-2 10q0 17 80 34q146 21 210 21v2l-6 768q-75 -125 -153 -125h-1q-50 0 -83 43q-14 22 -14 51q0 34 20 79h1q20 -55 60 -55 q54 0 109 92q30 47 53 74q29 33 56 33z" />
<glyph unicode="2" horiz-adv-x="721" d="M331 1475q148 0 224 -106q47 -70 47 -170q0 -138 -102 -302q-74 -134 -192 -298l-45 -57v-2h2q136 16 231 16h8q167 0 167 -52q-6 -46 -17 -55q0 -6 -32 -18q0 -6 -354 -20l-44 -1q-143 0 -143 29q0 37 192 333q209 325 209 396l1 17q0 60 -39 120q-44 60 -102 60 q-85 0 -154 -159q-16 -38 -30 -118q-6 -18 -19 -28q-14 -6 -24 -6h-16q-34 0 -47 34l-2 21q15 126 49 198q79 168 232 168z" />
<glyph unicode="3" horiz-adv-x="806" d="M193 1463q77 0 252 -14h52l171 4h10q78 0 78 -27v-3q0 -37 -181 -179l-231 -169v-1l50 -3h48q68 0 144 4q83 0 135 -113q26 -71 26 -148q0 -127 -67 -234q-41 -60 -102 -98q-116 -72 -230 -72h-19q-107 0 -188 63q-63 54 -63 124v5q0 93 83 123q31 9 62 9h12q22 0 39 -3 v-1q-33 -11 -76 -52q-24 -28 -24 -52v-5q0 -44 70 -85q30 -13 56 -13l4 1h4q72 0 166 84q47 48 72 89q47 82 47 143q0 80 -91 107q-66 18 -117 19l-171 10q-76 10 -76 33v3q0 45 187 184q124 92 239 164v1q-45 -15 -149 -15q-121 0 -278 14q-48 9 -65 18q-22 12 -22 53v1 q0 22 80 29z" />
<glyph unicode="4" horiz-adv-x="741" d="M635 1473q41 0 52 -121l4 -87q0 -131 -45 -634q-14 -124 -31 -175q-16 -41 -34 -41q-11 -5 -21 -5h-5q-19 0 -35 74q-15 41 -15 93q-7 91 -7 332v21q0 13 -37 13h-9l-130 -9l-72 -3q-132 0 -164 37q-7 11 -17 66q-19 127 -19 237q0 143 39 171q23 20 47 20h4q38 0 58 -43 q3 -12 3 -25v-73l1 -68q-5 -39 -5 -75v-22q0 -82 34 -101l8 -2q187 5 271 5q24 328 63 376q35 39 62 39z" />
<glyph unicode="5" horiz-adv-x="842" d="M261 1464q117 0 388 -11q45 -6 76 -32q31 -27 31 -59v-9q0 -35 -38 -70q-8 -5 -20 -5q-19 0 -143 26q-71 12 -133 12h-9q-67 0 -220 -15l-2 -193l-1 -12l1 -2q146 35 273 35q136 0 214 -44q54 -37 87 -135q27 -80 27 -174v-6q0 -185 -97 -287q-45 -39 -100 -50 q-78 -23 -162 -23q-129 0 -228 55q-109 66 -109 179q0 115 94 153q22 7 44 7q63 0 96 -49q14 -25 14 -49l-2 -3q-30 12 -55 12h-7q-53 0 -72 -54l-2 -15v-2q0 -55 105 -91q50 -17 104 -17h4q132 0 175 110q25 66 25 141q0 118 -64 179q-32 28 -90 28h-8q-92 0 -279 -53 q-45 -13 -70 -13h-2q-24 0 -24 26q-9 24 -18 116q-14 123 -14 216q0 129 28 160q32 17 149 17z" />
<glyph unicode="6" horiz-adv-x="740" d="M358 1471q129 0 196 -74q35 -41 35 -93q0 -72 -61 -123q-24 -14 -47 -14q-20 0 -47 12v1q29 0 48 45q5 13 5 32v8q0 38 -37 70q-34 23 -85 23q-119 0 -159 -221q-13 -81 -13 -143q67 43 186 43q90 0 175 -22q62 -26 97 -92q39 -75 39 -169q0 -142 -84 -246 q-85 -98 -221 -98q-230 0 -306 271q-29 115 -29 254q0 169 38 319q22 68 58 114q81 103 212 103zM200 754v-19q0 -107 74 -165q55 -37 129 -37q63 0 118 68q56 78 56 161q0 123 -128 161q-28 6 -51 6h-1q-94 0 -158 -68q-39 -43 -39 -107z" />
<glyph unicode="7" horiz-adv-x="786" d="M218 1473q212 0 468 -20q29 -10 39 -28q11 -17 11 -44v-4q0 -99 -117 -278l-90 -117q-85 -114 -124 -186q-18 -27 -53 -105q-22 -53 -30 -134q-7 -52 -26 -84q-38 -63 -100 -63h-6q-32 0 -63 18q-12 14 -12 38v9q0 100 133 363q25 47 128 194l205 281q3 0 3 5h-2 q-363 -18 -479 -18h-15q-38 0 -38 51q0 45 28 111q25 11 140 11z" />
<glyph unicode="8" horiz-adv-x="685" d="M380 1469q151 0 225 -117q30 -56 30 -114q0 -96 -80 -201q-54 -61 -77 -75l-14 -9q19 -4 72 -54q69 -86 69 -186v-17q0 -114 -88 -210q-81 -76 -183 -76q-110 0 -198 86q-86 91 -86 204q0 97 68 196q63 76 130 76h8l-34 22q-131 87 -131 233q0 107 69 163q50 46 134 68 q51 11 86 11zM220 1227v-11q0 -80 112 -159l31 -17q136 84 136 193q0 64 -54 114q-29 17 -65 17h-4q-69 0 -124 -56q-32 -39 -32 -81zM176 681v-8q0 -96 79 -130q44 -16 85 -16q95 0 143 84q16 36 16 65v15q0 64 -63 144q-51 52 -86 60q-32 0 -85 -34q-89 -72 -89 -180z" />
<glyph unicode="9" horiz-adv-x="725" d="M355 1468q132 0 220 -89q100 -116 100 -328v-27q0 -175 -64 -389q-20 -56 -46 -98q-58 -87 -146 -115q-38 -12 -74 -12h-15q-83 0 -163 48q-72 54 -72 119v16q0 51 47 105q31 28 65 28q28 0 53 -18q-42 0 -59 -65l-2 -20q0 -63 72 -91q17 -7 51 -10q119 0 179 238 q19 82 19 106q-52 -26 -127 -26h-8q-99 0 -218 41q-63 29 -94 102q-23 60 -23 130q0 126 72 234q90 121 233 121zM163 1113q0 -115 132 -155q30 -6 48 -6h12q75 0 136 53q51 48 51 146q0 138 -128 184q-45 12 -67 12q-71 0 -136 -85q-48 -74 -48 -149z" />
<glyph unicode=":" horiz-adv-x="279" d="M239 853q0 -40 -28.5 -68.5t-68.5 -28.5t-68.5 28.5t-28.5 68.5t28.5 68.5t68.5 28.5t68.5 -28.5t28.5 -68.5zM239 549q0 -41 -28.5 -69t-68.5 -28t-68.5 28t-28.5 69q0 40 28.5 68t68.5 28t68.5 -28t28.5 -68z" />
<glyph unicode=";" horiz-adv-x="340" d="M239 853q0 -40 -28.5 -68.5t-68.5 -28.5t-68.5 28.5t-28.5 68.5t28.5 68.5t68.5 28.5t68.5 -28.5t28.5 -68.5zM157 621q7 1 14 1q50 0 87 -62q19 -39 19 -79v-14q0 -45 -43 -76q-42 -34 -88 -34q-37 0 -69 22q54 0 91 31q20 22 20 45v11q0 9 -3 21h-1q0 -20 -39 -51 q-21 -11 -35 -11h-3q-41 0 -72 50q-8 18 -8 34q0 54 75 99q29 13 55 13z" />
<glyph unicode="&#x37e;" horiz-adv-x="340" d="M239 853q0 -40 -28.5 -68.5t-68.5 -28.5t-68.5 28.5t-28.5 68.5t28.5 68.5t68.5 28.5t68.5 -28.5t28.5 -68.5zM157 621q7 1 14 1q50 0 87 -62q19 -39 19 -79v-14q0 -45 -43 -76q-42 -34 -88 -34q-37 0 -69 22q54 0 91 31q20 22 20 45v11q0 9 -3 21h-1q0 -20 -39 -51 q-21 -11 -35 -11h-3q-41 0 -72 50q-8 18 -8 34q0 54 75 99q29 13 55 13z" />
<glyph unicode="&#x3c;" horiz-adv-x="799" d="M142 1402q89 -9 89 -82v-16q47 63 101 63h12q56 -12 56 -80v-9q0 -87 -110 -115q-83 -26 -110 -70l-45 52q-91 115 -91 177q0 67 98 80zM679 954q40 0 62 -29q7 -11 7 -27q0 -50 -67 -117q-14 -22 -14 -38v-7q0 -14 10 -30v-1h-1q-28 0 -103 17q-112 32 -112 88 q0 52 41 74q15 8 32 8q42 0 71 -37v-1h1q2 35 17 66q20 34 56 34z" />
<glyph unicode="=" horiz-adv-x="920" />
<glyph unicode="&#x3e;" horiz-adv-x="384" d="M305 1109q2 -41 3 -41l34 -21l-37 -15l-10 -39l-26 31l-40 -3v1l22 33l-16 38q38 -11 40 -10zM81 1344q64 -37 65 -36l66 32l-15 -74l52 -54h-1l-73 -9l-36 -65v1l-31 67l-73 14q53 47 55 51l-10 72z" />
<glyph unicode="?" horiz-adv-x="791" d="M439 1474q136 0 278 -149q37 -64 37 -116v-19q0 -170 -205 -302q-217 -66 -217 -232v-37q0 -165 25 -165q0 -19 45 -26q27 0 53 38v15l-24 82l8 7q90 -27 90 -75l4 -14q0 -67 -94 -124q-30 -15 -66 -15h-4q-113 0 -147 370l-8 60q0 117 253 261q74 51 74 112v4 q0 96 -102 142h-12q-77 0 -144 -149q-60 -90 -172 -90q-61 6 -61 45q0 45 78 45q31 27 65 127q98 205 246 205zM394 301h12q62 0 82 -78v-4q0 -57 -94 -75h-25q-41 0 -53 71v19q0 55 78 67z" />
<glyph unicode="@" horiz-adv-x="1296" d="M736 1384q318 0 445 -307q34 -101 34 -182v-53q0 -229 -219 -317l-44 -6q-62 0 -104 50q-64 -25 -125 -25h-41q-166 0 -250 138q-16 46 -16 75v9q0 127 106 226q60 44 120 44h21q133 0 214 -129q12 -36 12 -62l-6 -76q14 -128 106 -128q80 0 116 169l3 47q0 92 -56 232 q-64 92 -188 129q-93 28 -179 28h-28q-263 0 -395 -198q-87 -149 -87 -288q0 -245 257 -417q127 -62 241 -62h34q167 8 188 62l3 3l-3 3v7q7 88 54 88q27 0 59 -47q6 -13 6 -35q0 -97 -153 -163q-73 -25 -160 -25q-187 0 -370 97q-263 198 -263 520q0 318 291 499 q193 94 377 94zM535 766q0 -66 75 -97q34 -9 82 -9q100 6 100 28q-25 82 -25 157q-39 65 -104 65h-12q-90 0 -116 -134v-10z" />
<glyph unicode="A" horiz-adv-x="962" d="M415 1409q59 0 87 -79q25 -70 53 -280q50 -433 75 -578q21 -129 46 -206q24 -65 47 -89q24 -22 82 -22h8q80 0 107 67l1 5h1v-17q0 -107 -73 -159q-37 -21 -77 -21h-14q-63 0 -141 37q-25 13 -61 52q-29 39 -46 77q-21 49 -40 134q-16 69 -29 223l-5 132h-2 q-63 -14 -137 -77q-61 -59 -72 -84q-4 0 -7 -54q-16 -218 -32 -319q-10 -64 -24 -113q-21 -55 -34 -55q-20 -13 -39 -13q-49 0 -49 126q0 77 28 289q11 134 28 440q13 145 32 238q16 73 36 126q-58 48 -58 126q0 22 5 45h1q18 -39 57 -59q15 -5 23 -5h8q27 0 79 42 q89 71 136 71zM234 707h1q49 48 89 64q27 13 77 23q31 3 31 5q0 303 -44 417q-15 33 -33 33h-4q-30 0 -69 -97q-15 -53 -28 -187q-8 -81 -20 -258z" />
<glyph unicode="B" horiz-adv-x="889" d="M292 1486q17 0 20 -26v-12q0 -18 -8 -56q104 85 226 85h12q115 0 228 -69q44 -33 68 -65q43 -64 43 -129v-16q0 -96 -85 -203q-62 -69 -107 -97q-56 -37 -105 -59q-9 -2 -9 -5q36 -12 102 -51q129 -81 180 -217q22 -69 22 -134q0 -166 -164 -287q-138 -89 -290 -89 q-168 0 -286 110q-12 -96 -25 -96h-1q-35 0 -68 94q-30 110 -30 275q0 299 88 792q26 92 57 148q21 36 56 70q44 37 76 37zM242 974v-3q0 -32 40 -45l12 -2h22q190 0 332 123q85 85 85 160q0 84 -122 120q-40 11 -77 11q-182 0 -284 -325q-8 -21 -8 -39zM355 754 q50 -43 50 -88v-3q0 -54 -65 -108h-1q9 31 9 49v5q0 60 -66 86h-15q-62 0 -91 -88l-8 -99q0 -242 165 -298q44 -14 83 -14h20q104 0 209 74q85 74 85 157v12q0 155 -169 247q-45 26 -142 54z" />
<glyph unicode="C" horiz-adv-x="914" d="M595 1445q130 0 219 -73q33 -32 47 -56q24 -47 24 -82v-7q-1 -26 -11 -26q0 -2 -12 -2h-4q-32 0 -85 42q-77 46 -165 46q-143 0 -268 -103q-153 -159 -173 -462v-29q20 -272 137 -414q85 -112 217 -112h9q11 -1 23 -1q95 0 222 72q64 50 75 54q7 3 15 3q31 -7 31 -51 q0 -54 -48 -112q-47 -49 -89 -72q-124 -60 -241 -60q-219 0 -365 210q-147 183 -147 485q0 460 304 664q138 86 285 86z" />
<glyph unicode="D" horiz-adv-x="1303" d="M839 1356q164 0 279 -111q51 -55 70 -92q98 -169 98 -430v-3q0 -251 -81 -437q-133 -270 -431 -270q-130 0 -300 56v-1q-20 -41 -56 -82q-72 -76 -159 -76h-16q-106 0 -175 74q-52 61 -52 142q0 82 57 147q56 56 126 56h11q47 0 116 -35l63 -28q38 153 38 367 q0 204 -39 401q-55 -38 -181 -158q-38 -35 -51 -35h-4q-11 0 -11 18q0 68 91 191q38 47 113 111q8 5 8 8q-17 52 -39 88q-8 9 -8 17v4q0 38 30 38h3q48 0 104 -84h1q82 49 164 79q130 45 231 45zM500 1107q69 -221 69 -505q0 -214 -43 -388q143 -47 247 -47q235 0 317 243 q17 43 36 144q18 109 18 202q0 243 -109 375q-76 84 -196 84h-2q-116 0 -290 -81q-41 -21 -47 -26v-1zM165 122q0 -44 47 -60q18 -5 36 -5h9q41 0 80 65l-1 1l-114 52q-9 4 -16 4h-7q-20 0 -31 -36q-2 -5 -3 -21z" />
<glyph unicode="E" horiz-adv-x="980" d="M208 1457q78 0 300 -22q80 -6 144 -6h42q80 0 251 11h2q13 -4 16 -50v-32l-3 -57v-10q-4 -17 -81 -20l-43 -2q-119 0 -535 32h-8q-15 0 -23 -47q-5 -35 -5 -89v-162q197 -19 321 -19h5q29 0 61 7q16 0 17 -37l-10 -86q-7 -14 -25 -24q-39 -15 -118 -15h-145q-43 0 -93 -5 l-17 1l-37 -326q-5 -41 -5 -72v-20q-4 -66 -4 -114q0 -126 27 -126q2 0 4 1q152 -17 275 -17h5q157 10 252 72q39 31 39 71q0 8 -2 17q0 98 -105 126q-29 5 -50 5h-15q73 60 146 60q11 2 21 2q94 0 145 -162q7 -25 7 -46v-16q0 -112 -140 -203q-131 -57 -335 -57 q-31 0 -64 1h-36q-274 9 -274 18q-34 6 -51 23q-24 24 -24 52q0 42 14 378q21 308 21 450v-93q0 314 -6 523l-8 35q0 44 163 50h-16z" />
<glyph unicode="F" horiz-adv-x="978" d="M219 1459q53 0 126 -23l34 -4q338 16 544 16q15 -67 15 -112v-17q0 -45 -24 -52h-3q-134 -3 -460 -16v-1q23 -224 23 -283v-12q0 -11 49 -13h11l199 7q43 0 53 -11q12 -17 12 -55q0 -58 -21 -119q-14 -6 -114 -6h-86q-85 0 -94 -22q-11 -16 -11 -47q16 -197 16 -308v-38 q0 -248 -50 -330q-12 -12 -22 -13q-33 0 -78 106q-30 74 -30 195q0 194 -72 965l-4 60q-28 9 -47 9h-16q-58 0 -123 -51q-5 19 -6 45q0 89 97 119q39 11 82 11z" />
<glyph unicode="G" horiz-adv-x="1139" d="M719 1430q173 0 245 -112q26 -47 26 -93v-11q0 -101 -97 -199q-74 -68 -162 -101q-105 -39 -219 -39h-1q-81 0 -218 21q-100 -201 -100 -343v-24q0 -86 40 -191q18 -42 61 -84q129 -106 264 -135q95 -17 150 -17q106 0 178 122q23 37 46 114q20 71 20 123q0 107 -73 162 v1l26 3q81 0 141 -76q72 -101 72 -192q0 -73 -70 -311q-48 -170 -48 -267q0 -141 100 -197q43 -26 78 -26q69 0 105 92q9 34 9 57v6q0 55 -32 72l-8 2l-41 -1q-20 0 -24 15q0 21 47 34l22 3q56 0 82 -36q31 -48 31 -129q0 -111 -63 -192q-56 -60 -127 -60h-16q-70 0 -158 50 q-145 96 -145 311q0 145 63 283h-2q-45 -71 -157 -110q-56 -14 -99 -14q-199 0 -375 94q-142 80 -230 253q-50 107 -50 238q0 192 113 417q-95 35 -163 100q-31 34 -31 56q1 9 8 9q24 -3 125 -30q52 -11 130 -21v1q36 57 113 145q217 227 414 227zM381 1037v-1l4 -1l89 -2 h19q143 0 256 75q78 63 78 112q0 35 -77 46l-34 2q-96 0 -224 -109q-75 -71 -102 -109z" />
<glyph unicode="H" horiz-adv-x="912" d="M144 1474q26 0 64 -88q44 -102 44 -205q4 -74 4 -190v-161q214 -44 343 -44q33 0 66 6q0 108 27 397q35 273 86 273q37 0 69 -125q12 -31 12 -215q13 -840 13 -1048q0 -48 -10 -48q-24 -25 -91 -25h-4q-53 0 -67 16q-19 24 -30 239l-9 358q-243 25 -361 54l-47 13 q-9 -375 -26 -522q-13 -147 -38 -147q-28 -12 -50 -12h-11q-57 0 -80 46q-7 18 -8 149q0 357 41 992q22 255 33 255q11 32 30 32z" />
<glyph unicode="I" horiz-adv-x="586" d="M78 1436q403 -2 403 -13q18 -15 18 -57v-3q0 -69 -27 -105q-9 -6 -22 -6l-52 2q-37 0 -49 -29q-4 -8 -4 -23v-28l-3 -540q0 -360 24 -360l106 1q49 0 61 -17q13 -27 13 -70v-27q-4 -63 -18 -70l-1 -2h-2l-291 -2h-23q-146 0 -146 8l-3 49q0 117 21 117q84 12 111 19l4 3 v3h-1q-3 114 -6 722q-3 243 -13 243h-5l-86 -4h-9q-32 0 -32 18q-6 51 -6 84q0 72 30 86z" />
<glyph unicode="J" horiz-adv-x="898" d="M469 1455q210 0 328 -213q96 -187 96 -484q0 -101 -9 -231h-1q28 -44 28 -81v-1h-2q-28 16 -33 16q-14 -105 -33 -164q-20 -67 -44 -116q-111 -215 -387 -215h-33q-269 0 -354 168q-25 58 -25 116q0 143 119 265q81 72 154 93q106 33 274 33q110 0 187 -22l2 1v1l4 96v39 q0 224 -85 407l-31 49q-64 88 -147 88q-114 0 -158 -121q-10 -40 -10 -75q0 -94 53 -159q32 -31 66 -31q35 0 35 23q-1 16 -52 81q-7 12 -7 18q2 7 10 7h4q54 0 84 -39q19 -26 19 -58q0 -70 -68 -109q-23 -10 -46 -10h-12q-64 0 -143 62q-100 91 -100 228q0 131 89 237 q94 101 228 101zM167 263q0 -86 111 -129q59 -19 114 -19q134 0 227 132q39 55 68 138q33 104 33 134q-84 19 -149 19q-186 0 -322 -114q-82 -81 -82 -161z" />
<glyph unicode="K" horiz-adv-x="1182" d="M1105 1529h17q19 -11 19 -34q0 -121 -305 -489q-188 -254 -228 -353l449 -601v-5q-25 -44 -85 -44h-23q-94 1 -183 149l-245 349v-3q16 -301 16 -427v-14v-14q-1 -38 -49 -44h-3q-92 1 -118 146q-14 127 -14 279v20l1 92q-72 -21 -133 -21h-6h-17q-102 1 -141 71 q-17 31 -17 66l1 20q1 98 123 135q50 13 94 13l82 -1l-2 50q4 412 29 411q58 132 133 172l8 -1q13 0 13 -147l-4 -69l-13 -448v-3h3q85 184 561 729q27 16 37 16zM194 657q-1 -34 59 -43q39 0 88 33q-57 48 -96 48q-51 0 -51 -38z" />
<glyph unicode="L" horiz-adv-x="1326" d="M790 1464q103 0 170 -91q39 -58 39 -130v-3q0 -135 -138 -242q-44 -30 -95 -54q-51 -25 -118 -44q0 -82 -17 -305q-11 -97 -24 -173h1q46 -28 142 -122q115 -104 184 -138q163 -94 312 -94l92 1q23 -5 23 -33v-5q0 -42 -83 -75q-53 -16 -115 -16q-231 0 -483 208 q-38 32 -87 80l-31 26q-29 -80 -76 -142q-90 -116 -242 -116q-106 0 -173 57q-71 63 -71 160q0 112 94 212q104 96 227 96h20q45 0 103 -17q20 125 36 381q-36 1 -103 28q-85 44 -114 119q-4 15 -4 27v4q0 10 8 15h2q14 0 66 -28q62 -33 135 -33h22q0 37 27 181 q31 126 90 182q86 84 181 84zM658 1064l-1 -1h2q126 57 161 115q23 34 23 65q0 39 -32 60q-11 6 -21 6h-2q-39 0 -85 -55q-16 -29 -30 -79q-15 -84 -15 -111zM167 212q0 -47 75 -47q79 0 115 64q19 23 42 83l10 33q-41 13 -73 13h-8q-90 0 -144 -86q-17 -32 -17 -60z" />
<glyph unicode="M" horiz-adv-x="1278" d="M1120 1466q59 0 89 -51q5 -13 5 -22v-8l-8 -45l-2 -82v-1q0 -178 30 -923q4 -102 4 -192v-28q0 -105 -44 -128q-14 -9 -29 -9h-9q-43 0 -81 55q-24 33 -41 565q-7 239 -9 449q-3 0 -40 -83q-46 -94 -88 -225q-20 -63 -32 -143q0 -14 -30 -92q-35 -66 -68 -66 q-41 0 -62 117q-40 129 -97 251q-34 77 -110 227h-1q-4 -26 -4 -77l4 -415q0 -332 -43 -490q-19 -57 -41 -57q-38 0 -73 101q-45 116 -45 384v47l3 398v63q0 274 -63 334q-17 10 -30 10q-30 0 -65 -37q-25 -33 -25 -82q0 -52 28 -127q-30 0 -65 41q-38 57 -38 150 q0 128 145 175q54 14 94 14q78 0 138 -30q32 -23 67 -72q126 -179 289 -585q3 0 27 86q103 331 174 491q63 112 146 112z" />
<glyph unicode="N" horiz-adv-x="1344" d="M154 1474q44 0 117 -52q49 -46 74 -89q82 -125 161 -298q93 -193 207 -469q89 -215 116 -267l13 -12h3v4l-20 115q-13 78 -13 189q0 345 64 613q29 96 58 136q31 52 116 52q115 0 202 -96q52 -65 52 -140q0 -89 -77 -182q-37 -35 -75 -35q-34 0 -72 31v2h19q37 0 67 34 q22 32 22 63v15q0 51 -51 89q-34 18 -63 18q-36 0 -61 -93q-35 -139 -35 -484l5 -429q0 -158 -48 -196q-12 -9 -26 -9q-39 0 -97 54l-24 31q-90 134 -178 315q-163 325 -372 819h-1l-1 -5q0 -330 6 -700q0 -281 -58 -457q-26 -64 -56 -64q-31 0 -69 70q-19 47 -19 109 q0 50 30 280l4 97q0 65 -23 558l-1 94q0 231 60 275q22 14 44 14z" />
<glyph unicode="O" horiz-adv-x="1100" d="M646 1423q193 -37 283 -139q121 -126 156 -375q8 -65 8 -131q0 -97 -17 -197v-1q-50 -298 -218 -476q-126 -119 -267 -119q-31 0 -64 6l-22 3q-267 50 -411 300q-79 152 -95 311q-5 53 -5 103q0 79 12 153q28 161 124 334q147 239 402 239q54 0 114 -11zM799 1172v-1 q4 -1 29 -45q43 -91 43 -157q0 -15 -2 -29l-2 -12q-15 -83 -103 -113q-25 -8 -48 -8q-11 0 -21 2q-52 11 -78 55h7q105 0 116 62q1 7 1 14q0 59 -74 145q-94 103 -195 122l-3 1q-17 3 -33 3q-54 0 -102 -33q-121 -127 -152 -316l-1 -1q-11 -63 -11 -125q0 -155 67 -302 q57 -99 85 -125q101 -122 217 -144q21 -4 42 -4q106 0 210 99q88 110 118 289l4 24q20 94 20 189q0 126 -35 255q-34 105 -98 155h-1z" />
<glyph unicode="P" horiz-adv-x="799" d="M286 1432h8q23 0 23 -39l-11 -70q117 86 213 86q168 0 227 -267q13 -71 13 -132v-41q0 -250 -137 -443q-92 -108 -243 -108q-83 0 -179 39v-3q-25 -206 -38 -442q-12 -16 -26 -16h-13q-59 0 -83 106v8q0 931 111 1162q21 73 83 137q35 23 52 23zM239 830q80 0 119 -54 q-48 -9 -80 -44q-21 -35 -21 -65v-13q0 -66 52 -95q19 -11 41 -11h11q98 0 155 143q78 182 78 336v39q0 139 -81 189l-41 7h-10q-163 0 -212 -305z" />
<glyph unicode="Q" horiz-adv-x="1093" d="M587 1443h17q12 1 24 1q235 0 366 -213q104 -176 104 -425q0 -22 -1 -45q0 -333 -148 -551q-61 -141 -230 -192q-80 -17 -132 -17h-31q-232 0 -390 260q-136 247 -136 525v24q19 246 152 440q139 194 379 194q13 0 26 -1zM256 733q0 -248 105 -427q68 -108 191 -108 q159 0 277 203q81 161 81 363q0 364 -223 440q-47 12 -92 12q-198 0 -274 -164q-65 -127 -65 -319zM731 534h1v-3q-5 -18 -5 -35v-13q16 -96 177 -248q111 -110 164 -150q240 -187 360 -242q201 -94 457 -94q253 0 676 105q223 55 331 55q114 0 161 -50q23 -27 23 -58 q0 -61 -67 -84l-14 -2h-9q-9 5 -9 12q0 9 17 31q4 6 4 12q0 41 -82 49h-35q-161 0 -567 -148q-248 -78 -455 -78h-37q-350 0 -692 212q-77 50 -135 95q-53 39 -179 157l-52 54q-121 132 -121 154q-15 36 -15 83q0 116 103 186z" />
<glyph unicode="R" horiz-adv-x="814" d="M387 1446q339 -21 445 -149q85 -91 85 -246v-39q0 -202 -292 -303q-131 -32 -155 -32v-1q40 -175 153 -478q60 -144 152 -144q35 0 69 28q36 34 36 64v9q0 45 -78 87l-4 1q18 18 42 18h16q54 0 104 -61q22 -36 22 -73q0 -74 -69 -133q-68 -54 -160 -54q-105 0 -186 70 q-48 44 -78 122q-41 81 -81 203q-32 88 -97 330h-13q-18 0 -51 -4q-35 -313 -52 -404q-17 -66 -41 -120q-68 -108 -105 -108q-17 0 -17 30l35 420l33 361q6 130 8 202q2 68 2 94q-115 45 -115 127q0 53 74 112v-1q-9 -21 -9 -40q0 -49 82 -61q2 43 23 109q8 50 70 63 q71 1 152 1zM277 841q56 -14 120 -14h9h18q177 1 275 92q58 62 58 146q0 154 -186 201q-85 19 -252 28q-15 0 -15 -50q0 -11 1 -25q-28 -180 -28 -365v-13z" />
<glyph unicode="S" horiz-adv-x="1105" d="M682 1432q128 0 233 -102q102 -108 102 -246q0 -91 -59 -204q-24 -35 -43 -35q-35 0 -54 114q-7 56 -7 133q-1 19 -19 64q-35 72 -123 106q-26 6 -44 6h-8q-99 0 -160 -142q-10 -31 -10 -56v-2q0 -117 181 -239q20 -18 121 -86q88 -56 140 -100q133 -132 133 -297 q0 -152 -120 -250q-115 -88 -303 -88q-287 0 -466 126q-136 107 -136 245q0 120 106 200q70 48 131 48h3q100 0 154 -136l7 -20q-75 39 -133 39q-67 0 -90 -71q-5 -25 -6 -53q0 -50 80 -112q61 -42 129 -67q99 -33 177 -33h24q140 0 222 105q28 44 28 89q0 132 -226 259 q-122 62 -225 165q-121 132 -121 267q0 138 124 255q128 118 258 118z" />
<glyph unicode="T" horiz-adv-x="1327" d="M330 1443q366 0 721 -14q236 -14 236 -44q0 -23 -149 -61q-172 -37 -374 -37h-24q-23 -996 -47 -1070q-18 -82 -35 -113q-36 -79 -69 -79h-2q-39 0 -39 122l-2 145q0 398 14 995h-2q-386 9 -442 25q-40 8 -61 18q-15 8 -15 38q0 56 115 67q70 8 175 8z" />
<glyph unicode="U" horiz-adv-x="1063" d="M33 1566q61 0 118 -44q56 -38 75 -112q2 -8 2 -28q0 -94 -34 -450q10 -124 23 -224q8 -97 33 -184q65 -196 125 -259q43 -40 73 -40q55 0 141 150q38 70 74 166q41 115 63 201q37 134 70 369q12 88 28 278q9 51 26 51h18q120 0 149 -128q-9 -56 -9 -127l-3 -123v-81 q0 -147 2 -551q-8 -144 -8 -221q28 -149 59 -184q18 -19 43 -19q14 -4 14 -15q0 -10 -12 -26q-22 -6 -69 -11h-5q-93 0 -138 72q-46 91 -46 252v24l5 182v4h-1q-163 -475 -404 -475q-101 0 -198 87q-61 64 -75 95q-29 45 -61 132q-25 70 -53 191q-38 214 -38 309 q1 140 20 274l22 211l2 37v6q0 71 -50 94q-12 4 -26 4q-52 0 -68 -52l-2 -31q0 -16 4 -43h-1q-52 49 -52 104q0 62 75 112q41 23 89 23z" />
<glyph unicode="V" horiz-adv-x="1082" d="M108 1457q53 0 111 -102q43 -90 150 -403l202 -603v-2h3q88 162 165 401l103 396q82 286 158 286q35 0 41 -53l1 -29v-12q0 -174 -122 -561q-132 -387 -270 -600q-98 -145 -175 -174q-33 -11 -79 -11h-19q-88 0 -115 64q-7 20 -7 39v9q0 37 18 88h1q0 -58 27 -76 q26 -24 64 -24q57 0 87 44q10 19 10 35q0 24 -59 158q-363 871 -363 1021q10 109 68 109z" />
<glyph unicode="W" horiz-adv-x="1815" d="M255 1454q75 0 110 -40q45 -44 83 -133q64 -151 152 -606q53 -253 101 -384q2 0 21 41l153 296q-39 96 -39 168q0 95 72 127q31 10 52 10h16q64 0 88 -82q7 -33 7 -59q0 -86 -37 -164l147 -374h3q109 493 229 822q64 173 131 274q40 56 97 74q49 16 75 16q59 0 59 -60 q0 -78 -117 -235q-55 -92 -119 -268q-81 -219 -212 -619q-55 -154 -88 -212q-12 -18 -25 -18h-10q-63 0 -138 90q-51 71 -71 129q-41 121 -41 157q-2 0 -5 37q-3 -1 -25 -70q-130 -345 -239 -345q-39 0 -70 62q-56 95 -144 433l-153 649q-15 61 -31 101q-19 29 -54 29h-4 q-33 0 -134 -39l-28 -5h-1q-26 0 -26 39q0 68 76 124q60 35 139 35zM934 788v-13q0 -34 19 -93h1q25 82 25 123q0 26 -16 26q-29 -5 -29 -43z" />
<glyph unicode="X" horiz-adv-x="1362" d="M1230 1446q51 0 81 -47q11 -20 11 -39v-4q0 -51 -65 -102l-487 -496q40 -95 108 -206q60 -97 181 -240l81 -96q57 -69 57 -122v-2q0 -42 -38 -51h-8q-85 0 -195 147q-139 203 -248 422l-29 58h-3q-107 -163 -240 -336q-236 -307 -310 -307q-33 0 -65 23q-21 21 -21 50 q0 67 82 130q47 24 92 61q85 86 143 163l228 301v1q-331 343 -381 422q-105 142 -105 197q0 33 33 47q17 5 34 6q61 -4 307 -320q111 -142 202 -271l4 -4q0 3 110 136l355 438q42 41 86 41z" />
<glyph unicode="Y" horiz-adv-x="1063" d="M1033 1443q34 0 64 -47q4 -16 4 -34q0 -163 -118 -626q-151 -491 -256 -620q-104 -116 -246 -116h-8q-129 0 -218 90q-40 52 -40 92l-1 16v12q0 105 108 146q25 10 66 14q-66 -76 -66 -125v-6q0 -70 127 -90l27 -3q144 0 256 295q22 64 45 167q-102 -45 -184 -45 q-39 0 -74 10h-42q-112 20 -151 121q-9 29 -9 59v9q0 56 57 353q10 54 10 85q0 53 -37 66q-16 7 -39 7l-208 -10h-8q-52 0 -52 26q0 126 202 126q80 0 215 -10q47 -19 70 -71q21 -53 21 -129v-2q0 -147 -59 -351l-1 -21q0 -49 54 -68q7 -8 35 -8h17q92 0 237 48 q49 206 98 467q42 173 104 173z" />
<glyph unicode="Z" horiz-adv-x="1379" d="M478 1447q299 -3 342 -12q101 -9 174 -33q107 -41 107 -102q0 -64 -354 -524q-273 -352 -388 -514q-35 -52 -35 -65v-3l17 -3h6q35 0 379 45q143 14 234 14h38q207 0 306 -81q35 -33 35 -70q0 -49 -60 -77q-16 -6 -34 -6h-3q-16 0 -65 20q-45 12 -99 12q-49 0 -540 -38 q-78 -7 -185 -10q-226 0 -281 80q-13 24 -13 48q0 71 99 179q182 233 428 598l236 361q-137 15 -262 15h-61q-178 0 -408 -29h-4q-31 0 -44 33l-3 16q0 49 66 95q78 51 372 51z" />
<glyph unicode="[" horiz-adv-x="758" />
<glyph unicode="\" horiz-adv-x="569" />
<glyph unicode="]" horiz-adv-x="758" />
<glyph unicode="^" horiz-adv-x="1014" />
<glyph unicode="_" horiz-adv-x="1104" d="M40 -100h1024v-60h-1024v60z" />
<glyph unicode="`" horiz-adv-x="541" />
<glyph unicode="a" horiz-adv-x="608" d="M550 965h7q5 -2 5 -10v-3q0 -19 -22 -76q-50 -160 -50 -255q0 -65 30 -88q17 -6 38 -6h3q107 0 159 207l22 -74q1 -93 -77 -187q-96 -76 -172 -76h-21q-78 0 -121 90l-2 3h-1q-101 -93 -196 -93h-1q-103 0 -149 105q-12 32 -12 67v13q0 145 177 299q109 83 171 83 q47 0 76 -44q58 17 136 45zM130 569q0 -33 19 -46l11 -3h5q76 0 169 218q23 70 23 85q-2 25 -21 25h-2q-52 0 -138 -99q-49 -66 -62 -145z" />
<glyph unicode="b" horiz-adv-x="655" d="M113 1498q28 -9 28 -81v-11q0 -326 47 -496l20 -75q75 95 217 95q158 0 209 -123q28 -59 28 -134v-11q0 -151 -117 -231q-57 -28 -148 -28q-129 0 -175 86v6h-3q-45 -109 -156 -109h-14q-129 0 -167 98l-3 33q0 71 59 117l13 3h6q17 -2 17 -8q-9 -31 -9 -59 q11 -75 62 -75h2q60 0 70 125q0 46 -39 193q-39 226 -39 412q0 209 53 259q19 14 39 14zM261 679v-31q0 -104 111 -128l34 -3h19q104 0 142 126l9 50h-3q-34 -53 -84 -53l-36 5v3q56 19 56 84v5q0 66 -75 70q-130 0 -168 -95z" />
<glyph unicode="c" horiz-adv-x="628" d="M371 977l13 1q18 2 35 2q77 0 139 -34q26 -7 37 -6l9 1q12 0 32 8l2 -1q-57 -66 -145 -74l-84 3h-5q-101 -9 -177 -88q-40 -50 -50 -129l-1 -46q6 -58 72 -80q21 -6 43 -4q74 7 129 75q93 87 175 94h2l3 -3q-17 -53 -81 -144q-105 -132 -235 -143q-15 -1 -29 -1 q-97 0 -159 60q-40 50 -45 108l-1 20q-2 15 -2 32q0 35 9 74q-55 16 -97 72q-32 48 -36 97l-2 19h2q58 -80 124 -80h6q42 4 118 74q85 70 149 85q24 7 50 8z" />
<glyph unicode="d" horiz-adv-x="779" d="M391 1470h10q120 0 189 -117q34 -66 34 -145v-2q0 -45 -28 -199l-23 -173l1 -6q-6 -18 -24 -222v-5q0 -69 39 -91l18 -3q85 0 181 129h1q-20 -64 -44 -108q-20 -38 -62 -83q-63 -57 -129 -57h-12q-60 0 -101 55q-67 -56 -175 -56h-16q-185 0 -243 136q-17 44 -17 89v13 q0 123 92 247q90 105 239 105q73 0 116 -22q0 13 41 262l1 20v4q0 78 -61 106q-26 9 -51 9q-73 0 -127 -50q-20 -24 -20 -51v-3q0 -48 47 -107l-2 -3h-9q-34 0 -75 63q-23 42 -23 80v9q0 108 160 166q42 10 73 10zM126 651q0 -104 77 -141q20 -8 43 -8q109 0 163 112 q17 43 17 89q0 105 -88 142q-22 6 -33 6h-7q-67 0 -129 -68q-43 -57 -43 -132z" />
<glyph unicode="e" horiz-adv-x="500" d="M287 965l15 -1q100 -9 122 -122l-2 -29q-31 -156 -290 -233v-4q18 -38 73 -43l15 -1h11q101 0 223 149q79 98 81 117l4 -1v-2q1 -14 1 -28q0 -162 -179 -305q-74 -59 -148 -59l-16 1l-16 1q-134 11 -185 160q-5 31 -5 55q0 8 1 15l1 15q13 146 143 267q73 48 139 48h12z M143 675q151 52 158 134q-3 27 -27 29h-4q-46 0 -94 -86q-32 -63 -33 -77z" />
<glyph unicode="f" horiz-adv-x="588" d="M454 1442h10q111 0 169 -79q16 -29 16 -55v-11q0 -54 -49 -96q-13 -6 -21 -6q-14 0 -26 21l-1 6v4l14 36l3 18q0 66 -69 77l-17 1h-7q-79 0 -148 -62q-34 -43 -45 -107q-20 -98 -21 -144l-3 -25l15 -1h21q10 -1 19 -1q95 0 194 90h2v-2q0 -96 -103 -171q-49 -32 -101 -32 q-14 0 -27 2l-22 1h-2l-2 -9q-3 -356 -11 -356q0 -23 -21 -86q-27 -53 -58 -53q-24 0 -34 28v11l4 33l-18 314v87l2 69q-70 29 -147 29q-17 3 -35 3q-43 0 -88 -18v7q0 56 78 100q34 13 80 13q53 0 123 -16q17 94 38 159q27 72 86 136q93 85 202 85z" />
<glyph unicode="g" horiz-adv-x="625" d="M294 988h11q79 0 161 -58q91 -99 91 -258v-6q0 -28 -2 -41q2 -17 2 -42v-16q0 -115 -34 -269q112 -104 112 -146v-13q-5 -16 -9 -16h-1q-4 14 -45 44q-49 37 -69 47v-2q-15 -119 -32 -168q-23 -69 -60 -123q-90 -109 -204 -109q-130 0 -204 149q-21 47 -21 99v10 q0 137 135 244q84 62 195 62q53 0 111 -19v2l7 59q-57 -32 -132 -32q-196 0 -280 157q-18 52 -18 103v19q0 168 155 275q64 48 131 48zM148 706q-4 -20 -4 -40q0 -62 43 -115q35 -36 79 -45l19 -5q12 -2 23 -2q56 0 96 59q18 32 27 73v4l3 22q-33 19 -54 24h-1 q-37 7 -43 -20l-2 1l2 22q10 52 94 58q-28 101 -95 115q-11 2 -23 2q-57 0 -117 -58q-36 -40 -47 -95zM94 89v-15q0 -78 71 -129q35 -18 61 -18q115 0 177 249q11 49 11 77q-45 10 -81 10q-92 0 -175 -51q-64 -54 -64 -123z" />
<glyph unicode="h" horiz-adv-x="610" d="M81 1447h3q19 0 37 -55q22 -58 22 -147v-19l-9 -348l-1 -6q25 48 62 96q25 32 63 62q81 55 147 55h14q87 0 144 -79q27 -50 27 -118q0 -63 -40 -247q-11 -63 -11 -96q0 -54 25 -64q25 -14 25 -34v-10q0 -33 -43 -41l-9 -1q-93 0 -115 139l-3 43q0 53 32 233l3 56v20 q0 64 -38 64h-7q-37 0 -90 -47q-48 -59 -69 -104q-33 -62 -69 -206q-12 -52 -19 -130q-9 -38 -25 -57q-29 -19 -57 -19q-51 0 -76 71l-1 1h-1l1 1v2q-1 14 -1 29q0 55 9 123v23q5 42 5 111q0 84 -7 207q0 388 50 470q13 22 22 22z" />
<glyph unicode="i" horiz-adv-x="241" d="M118 1204h8q52 0 76 -61l3 -22q0 -58 -63 -81l-20 -3q-59 0 -82 67l-1 18v1q0 50 52 76q14 5 27 5zM99 1011h3q78 0 91 -50q4 -16 4 -36l-2 -97v-13l4 -82v-33q-7 -295 -20 -295q-8 -14 -21 -14q-119 4 -119 18q-12 6 -19 28v3q7 46 29 501v24l-1 22q6 24 51 24z" />
<glyph unicode="j" horiz-adv-x="266" d="M118 1245h10q60 0 86 -72l1 -20q0 -67 -71 -89l-21 -3q-67 0 -90 75l-2 19q0 62 67 87q7 3 20 3zM206 1025q11 -125 11 -276q0 -289 -45 -502q104 -88 104 -203v-19l-3 -37h-3q-16 87 -67 154q-12 15 -44 46h-2q-58 -218 -162 -294q-124 -78 -249 -78q-134 0 -223 97 q-69 85 -69 182v12q0 158 170 227q73 24 156 24q111 0 240 -35h2q39 133 39 279v10l-5 183v10q3 171 14 171l136 51v-2zM-398 95v-5q0 -97 100 -132l37 -5h16q102 0 200 189q27 63 48 125h-1q-111 29 -175 29q-130 0 -198 -107q-27 -48 -27 -94z" />
<glyph unicode="k" horiz-adv-x="511" d="M115 1488h3q18 0 18 -30l2 -99q5 -139 5 -264q0 -94 -3 -180l187 140q44 24 71 24h8q28 -3 28 -19v-8q0 -39 -107 -126q-30 -38 -107 -108q279 -332 281 -370q6 -9 6 -17q0 -19 -31 -32l-15 -4h-11q-71 0 -109 98l-197 270q18 -231 18 -328q0 -34 -12 -40q-16 -9 -32 -9 q-68 0 -96 98q-16 119 -16 241l1 61h-1l-14 194l-1 1l-1 173v60q0 157 12 181q26 60 83 85q16 8 30 8z" />
<glyph unicode="l" horiz-adv-x="344" d="M176 1500l1 -2q-22 -365 -22 -584q0 -262 29 -338q10 -18 26 -18h3q59 0 83 134h1q30 -8 43 -44q14 -27 14 -81q-10 -104 -122 -154q-33 -9 -54 -9h-12q-131 0 -154 232q-22 131 -22 330v38q0 141 11 436q125 29 175 60z" />
<glyph unicode="m" horiz-adv-x="926" d="M340 992h10q61 0 114 -37q40 -38 40 -110q0 -29 -7 -64v-1h1q58 145 168 145h7q74 0 121 -51q22 -27 36 -70q15 -42 26 -226q8 -59 18 -86q18 -41 47 -51l15 -6q-25 -28 -48 -39q-20 -10 -39 -10q-79 0 -95 204q-29 194 -97 194q-69 0 -159 -231q-30 -79 -55 -79l-14 -1 h-12q-18 0 -24 19q-3 19 -5 51l11 216q0 88 -31 88h-4q-32 0 -82 -75q-24 -37 -52 -120l-56 -202q-25 -74 -52 -74q-26 0 -32 66l-1 23v20q0 142 62 319h-20q-88 0 -131 78l-10 21h1q48 -22 96 -22q71 0 139 51q51 60 114 60z" />
<glyph unicode="n" horiz-adv-x="547" d="M144 965l1 -1v-1q-28 -32 -44 -99q-6 -30 -6 -54v-3h1q33 85 99 120q40 20 86 20q107 0 139 -96q19 -58 43 -230q19 -90 41 -137q21 -41 53 -78v-1q-29 -28 -59 -28q-93 0 -162 265l-33 159q-11 25 -28 25q-21 0 -54 -23q-35 -35 -61 -123q-43 -210 -70 -266 q-21 -36 -44 -36q-48 0 -56 148v77q0 174 70 301q42 61 84 61z" />
<glyph unicode="o" horiz-adv-x="490" d="M252 953h10q70 0 146 -48q49 -46 61 -83q33 -69 33 -154v-8q0 -149 -110 -222q-58 -31 -128 -31q-188 0 -247 143q-17 48 -17 95v14q0 142 110 238q70 56 142 56zM125 674q0 -75 61 -122q37 -24 76 -24h17q69 0 95 73q8 25 8 56v7l-1 16q-32 10 -51 10h-2q-32 -3 -32 -21 v-1h-2l-3 17q0 46 71 64q-41 78 -102 78q-53 0 -103 -58q-32 -43 -32 -95z" />
<glyph unicode="p" horiz-adv-x="567" d="M-10 958h17q97 0 142 -81q81 78 171 78h9q79 0 159 -55q89 -94 89 -243q0 -164 -122 -237q-57 -27 -125 -27q-101 0 -169 42h-2q-11 -414 -11 -571l2 -38q0 -13 -30 -15h-3q-59 20 -96 147q-14 58 -14 65q9 0 31 506l16 238q0 131 -64 190v1zM167 668v-4q0 -97 87 -151 q38 -20 75 -20h20q74 0 108 72q16 35 16 83v15q0 16 -62 28q-34 0 -49 -34h-3l-1 10v6q0 58 88 81q-28 62 -85 87q-21 6 -35 6h-1q-69 0 -130 -81q-28 -48 -28 -98z" />
<glyph unicode="q" horiz-adv-x="565" d="M254 957h10q74 0 154 -50q51 -48 63 -87q35 -73 35 -162v-8q0 -73 -43 -193l-29 -151h2q130 0 238 -90q105 -106 105 -226v-11q0 -140 -144 -219q-45 -20 -82 -20h-16q-105 0 -186 108q-54 78 -54 188v16q0 56 18 151q-117 -28 -135 -48q-3 0 -5 15q0 45 153 112l14 116 q-42 -13 -85 -13q-198 0 -260 150q-17 50 -17 99v15q0 150 116 250q73 58 148 58zM122 659q0 -77 63 -126q38 -25 79 -25h17q72 0 99 75q8 26 8 58v7l-1 17q-33 11 -53 11h-2q-33 -3 -33 -22v-1h-3l-2 17q0 48 73 66q-42 82 -105 82q-56 0 -107 -61q-33 -45 -33 -98z M428 199q-11 -57 -11 -104v-24q4 -157 82 -192q23 -9 42 -9q75 0 117 81q13 28 13 54v10q0 97 -155 166q-61 18 -88 18z" />
<glyph unicode="r" horiz-adv-x="478" d="M287 1047l15 2q9 1 18 1q51 0 82 -30q19 -20 44 -27q13 2 40 3l2 -2q-50 -78 -83 -90h-4q-17 0 -64 8q-21 4 -28 4q-47 -4 -71 -82q-35 -119 -55 -316q-18 -76 -66 -110q-22 -14 -38 -15l-3 -1h-2q-8 0 -11 5l-2 12q-1 19 -1 61q0 56 2 153l-3 -2q-30 -13 -54 12 q-9 10 -14 24l-1 10l1 5q27 -5 37 -5l13 5q17 4 26 52h1l13 261q7 5 14 6h5h4q45 0 74 -44l2 -5q10 1 23 41q37 54 84 64z" />
<glyph unicode="s" horiz-adv-x="502" d="M263 1002h13q127 0 148 -77q2 -6 2 -21v-4q0 -33 -17 -62q-1 16 -24 47q-15 13 -44 25q-29 10 -57 10h-14q-15 2 -28 2q-55 0 -77 -37q-5 -14 -5 -21v-6q46 -44 138 -79q109 -42 155 -78q59 -50 59 -117q0 -119 -128 -168q-53 -15 -100 -15h-17q-115 0 -209 57 q-45 31 -45 80v10q0 61 88 89l23 4l1 -1v-1q-23 -25 -23 -50v-4q0 -53 107 -73l23 -1h9q89 0 108 56l3 19v5q0 33 -70 60q-240 103 -240 210q0 86 138 129q41 12 83 12z" />
<glyph unicode="t" horiz-adv-x="453" d="M237 1439v-3l-14 -381l55 -5q106 10 216 100h3v-12q7 -20 7 -39q0 -81 -135 -133q-54 -33 -93 -33l-60 -4v-125q2 -234 38 -244h4q32 0 46 86l-3 44l-15 20q10 11 23 11q29 0 71 -62q17 -54 17 -98q0 -121 -130 -161l-32 -2l-30 4q-82 14 -125 153q-27 109 -27 271l5 168 q-77 47 -176 47q-55 0 -135 -27h-3v5q0 80 111 122l57 4q72 0 146 -19v194q152 104 179 119z" />
<glyph unicode="u" d="M31 957h8q39 0 103 -16v-1q-28 -202 -28 -272q0 -103 53 -131q20 -7 32 -7h5h6q70 0 99 214q27 140 27 196q73 8 103 8q50 -3 50 -24v-1q0 -50 -24 -285l-1 -40q10 -144 64 -223v-1h-1q-87 0 -153 150l-4 35h-1q0 -25 -25 -80q-49 -90 -166 -90q-123 0 -166 122 q-22 72 -22 158v20q0 115 12 261q10 7 29 7z" />
<glyph unicode="v" horiz-adv-x="503" d="M78 982h11q82 0 114 -45q64 -78 64 -253v-30h1q63 184 119 316q9 6 18 6h4l98 -6h3l3 -2v-2q0 -45 -183 -429l-76 -154h-1q-37 41 -46 78q-16 34 -31 128q-12 76 -31 269q-3 25 -24 54q-22 20 -52 20q-32 0 -76 -22h-3v11q0 41 51 56q16 5 37 5z" />
<glyph unicode="w" horiz-adv-x="893" d="M56 957h19q42 0 112 -16v-1q-52 -202 -52 -292q0 -103 56 -131q22 -7 35 -7h6q82 0 136 234q29 140 29 196q47 8 79 8q55 -3 55 -24v-1q0 -50 -48 -295l-1 -40q0 -124 80 -193v-1h-1q-95 0 -155 130l-4 35h-2q0 -25 -26 -80q-53 -90 -180 -90q-133 0 -180 122 q-24 72 -24 158v20q0 115 35 261q11 7 31 7zM465 907h8q-21 0 13 -16v-1q-18 -152 -18 -242q0 -103 53 -131q20 3 32 -7h5q145 0 165 234q27 140 27 196q63 8 103 8q50 -3 50 -24v-1q0 -50 -32 -206.5t-103 -268.5q-59 -59 -176 -59q-123 0 -166 122q-22 72 -22 158v20 q0 115 32 211q10 7 29 7z" />
<glyph unicode="x" horiz-adv-x="701" d="M499 957h5q19 0 49 -34l3 -12q0 -58 -187 -239q75 -116 116 -167q67 -70 112 -70q56 0 99 83v2h1q14 -26 14 -55q0 -61 -71 -83q-32 -9 -64 -9h-8q-131 0 -272 210l-10 12l-139 -142q-71 -69 -115 -69h-1q-34 0 -41 29v7q0 60 218 272q-153 143 -176 168q-26 32 -26 55v1 q0 32 46 38h2q52 0 235 -185q95 90 163 163q29 25 47 25z" />
<glyph unicode="y" horiz-adv-x="571" d="M579 952l2 -5q-1 -89 -12 -241q-7 -332 -174 -504q-98 -104 -216 -104q-11 0 -23 1h-3q-53 6 -191 52q-54 15 -94 20l-17 1q-20 2 -44 2q-73 0 -179 -19q-83 -26 -128 -86q-34 -69 -59 -69h-1l-3 1q-25 6 -25 35q0 4 1 9v5q11 119 255 187q107 26 226 26q53 0 109 -5 l5 -1l93 -13q14 -1 28 -1q112 0 181 86q68 69 80 210l2 42v2h-1q-74 -128 -197 -158q-27 -3 -44 -2l-11 1q-79 7 -90 77q-3 19 -1 35l1 10q5 66 91 256q17 45 20 69v9q3 27 -23 34h-2q-15 6 -46 6q-52 0 -149 -17h-1q40 68 86 105q82 54 155 54h12l10 -1q44 -4 81 -63 q14 -28 14 -67q0 -9 -1 -19q-4 -44 -38 -210l-1 -17v-15q0 -51 18 -53h3h3q49 0 130 113q39 95 45 166l2 16q6 5 121 40z" />
<glyph unicode="z" horiz-adv-x="740" d="M17 970q200 -11 590 -26q4 -22 4 -47q0 -52 -29 -69l-363 -316v-2q0 -4 52 -7q115 -13 184 -13q150 0 187 42l3 16q0 13 -24 25q-9 11 -9 28v4q0 32 45 36h2q55 0 84 -67q5 -13 7 -38q0 -100 -127 -146q-70 -22 -179 -22q-71 0 -316 22l-107 -4q-17 0 -17 60v1 q2 60 13 60q9 0 234 187l172 146q-317 15 -390 15q-29 8 -29 16q-7 0 -14 66v7q0 19 27 26z" />
<glyph unicode="&#xaa;" horiz-adv-x="608" d="M550 965h7q5 -2 5 -10v-3q0 -19 -22 -76q-50 -160 -50 -255q0 -65 30 -88q17 -6 38 -6h3q107 0 159 207l22 -74q1 -93 -77 -187q-96 -76 -172 -76h-21q-78 0 -121 90l-2 3h-1q-101 -93 -196 -93h-1q-103 0 -149 105q-12 32 -12 67v13q0 145 177 299q109 83 171 83 q47 0 76 -44q58 17 136 45zM130 569q0 -33 19 -46l11 -3h5q76 0 169 218q23 70 23 85q-2 25 -21 25h-2q-52 0 -138 -99q-49 -66 -62 -145z" />
<glyph unicode="&#xad;" />
<glyph unicode="&#xb2;" horiz-adv-x="721" d="M331 1475q148 0 224 -106q47 -70 47 -170q0 -138 -102 -302q-74 -134 -192 -298l-45 -57v-2h2q136 16 231 16h8q167 0 167 -52q-6 -46 -17 -55q0 -6 -32 -18q0 -6 -354 -20l-44 -1q-143 0 -143 29q0 37 192 333q209 325 209 396l1 17q0 60 -39 120q-44 60 -102 60 q-85 0 -154 -159q-16 -38 -30 -118q-6 -18 -19 -28q-14 -6 -24 -6h-16q-34 0 -47 34l-2 21q15 126 49 198q79 168 232 168z" />
<glyph unicode="&#xb3;" horiz-adv-x="806" d="M193 1463q77 0 252 -14h52l171 4h10q78 0 78 -27v-3q0 -37 -181 -179l-231 -169v-1l50 -3h48q68 0 144 4q83 0 135 -113q26 -71 26 -148q0 -127 -67 -234q-41 -60 -102 -98q-116 -72 -230 -72h-19q-107 0 -188 63q-63 54 -63 124v5q0 93 83 123q31 9 62 9h12q22 0 39 -3 v-1q-33 -11 -76 -52q-24 -28 -24 -52v-5q0 -44 70 -85q30 -13 56 -13l4 1h4q72 0 166 84q47 48 72 89q47 82 47 143q0 80 -91 107q-66 18 -117 19l-171 10q-76 10 -76 33v3q0 45 187 184q124 92 239 164v1q-45 -15 -149 -15q-121 0 -278 14q-48 9 -65 18q-22 12 -22 53v1 q0 22 80 29z" />
<glyph unicode="&#xb9;" horiz-adv-x="836" d="M382 1471q54 0 64 -666l3 -220l-1 -74h1q153 11 230 11h19q75 0 75 -14q13 -23 13 -37q0 -45 -215 -54q-166 -7 -275 -7q-220 0 -244 34l-2 10q0 17 80 34q146 21 210 21v2l-6 768q-75 -125 -153 -125h-1q-50 0 -83 43q-14 22 -14 51q0 34 20 79h1q20 -55 60 -55 q54 0 109 92q30 47 53 74q29 33 56 33z" />
<glyph unicode="&#xba;" horiz-adv-x="490" d="M252 953h10q70 0 146 -48q49 -46 61 -83q33 -69 33 -154v-8q0 -149 -110 -222q-58 -31 -128 -31q-188 0 -247 143q-17 48 -17 95v14q0 142 110 238q70 56 142 56zM125 674q0 -75 61 -122q37 -24 76 -24h17q69 0 95 73q8 25 8 56v7l-1 16q-32 10 -51 10h-2q-32 -3 -32 -21 v-1h-2l-3 17q0 46 71 64q-41 78 -102 78q-53 0 -103 -58q-32 -43 -32 -95z" />
<glyph unicode="&#xc0;" horiz-adv-x="962" d="M415 1409q59 0 87 -79q25 -70 53 -280q50 -433 75 -578q21 -129 46 -206q24 -65 47 -89q24 -22 82 -22h8q80 0 107 67l1 5h1v-17q0 -107 -73 -159q-37 -21 -77 -21h-14q-63 0 -141 37q-25 13 -61 52q-29 39 -46 77q-21 49 -40 134q-16 69 -29 223l-5 132h-2 q-63 -14 -137 -77q-61 -59 -72 -84q-4 0 -7 -54q-16 -218 -32 -319q-10 -64 -24 -113q-21 -55 -34 -55q-20 -13 -39 -13q-49 0 -49 126q0 77 28 289q11 134 28 440q13 145 32 238q16 73 36 126q-58 48 -58 126q0 22 5 45h1q18 -39 57 -59q15 -5 23 -5h8q27 0 79 42 q89 71 136 71zM234 707h1q49 48 89 64q27 13 77 23q31 3 31 5q0 303 -44 417q-15 33 -33 33h-4q-30 0 -69 -97q-15 -53 -28 -187q-8 -81 -20 -258z" />
<glyph unicode="&#xc2;" horiz-adv-x="962" d="M415 1409q59 0 87 -79q25 -70 53 -280q50 -433 75 -578q21 -129 46 -206q24 -65 47 -89q24 -22 82 -22h8q80 0 107 67l1 5h1v-17q0 -107 -73 -159q-37 -21 -77 -21h-14q-63 0 -141 37q-25 13 -61 52q-29 39 -46 77q-21 49 -40 134q-16 69 -29 223l-5 132h-2 q-63 -14 -137 -77q-61 -59 -72 -84q-4 0 -7 -54q-16 -218 -32 -319q-10 -64 -24 -113q-21 -55 -34 -55q-20 -13 -39 -13q-49 0 -49 126q0 77 28 289q11 134 28 440q13 145 32 238q16 73 36 126q-58 48 -58 126q0 22 5 45h1q18 -39 57 -59q15 -5 23 -5h8q27 0 79 42 q89 71 136 71zM234 707h1q49 48 89 64q27 13 77 23q31 3 31 5q0 303 -44 417q-15 33 -33 33h-4q-30 0 -69 -97q-15 -53 -28 -187q-8 -81 -20 -258z" />
<glyph unicode="&#xc8;" horiz-adv-x="980" d="M208 1457q78 0 300 -22q80 -6 144 -6h42q80 0 251 11h2q13 -4 16 -50v-32l-3 -57v-10q-4 -17 -81 -20l-43 -2q-119 0 -535 32h-8q-15 0 -23 -47q-5 -35 -5 -89v-162q197 -19 321 -19h5q29 0 61 7q16 0 17 -37l-10 -86q-7 -14 -25 -24q-39 -15 -118 -15h-145q-43 0 -93 -5 l-17 1l-37 -326q-5 -41 -5 -72v-20q-4 -66 -4 -114q0 -126 27 -126q2 0 4 1q152 -17 275 -17h5q157 10 252 72q39 31 39 71q0 8 -2 17q0 98 -105 126q-29 5 -50 5h-15q73 60 146 60q11 2 21 2q94 0 145 -162q7 -25 7 -46v-16q0 -112 -140 -203q-131 -57 -335 -57 q-31 0 -64 1h-36q-274 9 -274 18q-34 6 -51 23q-24 24 -24 52q0 42 14 378q21 308 21 450v-93q0 314 -6 523l-8 35q0 44 163 50h-16z" />
<glyph unicode="&#xca;" horiz-adv-x="980" d="M208 1457q78 0 300 -22q80 -6 144 -6h42q80 0 251 11h2q13 -4 16 -50v-32l-3 -57v-10q-4 -17 -81 -20l-43 -2q-119 0 -535 32h-8q-15 0 -23 -47q-5 -35 -5 -89v-162q197 -19 321 -19h5q29 0 61 7q16 0 17 -37l-10 -86q-7 -14 -25 -24q-39 -15 -118 -15h-145q-43 0 -93 -5 l-17 1l-37 -326q-5 -41 -5 -72v-20q-4 -66 -4 -114q0 -126 27 -126q2 0 4 1q152 -17 275 -17h5q157 10 252 72q39 31 39 71q0 8 -2 17q0 98 -105 126q-29 5 -50 5h-15q73 60 146 60q11 2 21 2q94 0 145 -162q7 -25 7 -46v-16q0 -112 -140 -203q-131 -57 -335 -57 q-31 0 -64 1h-36q-274 9 -274 18q-34 6 -51 23q-24 24 -24 52q0 42 14 378q21 308 21 450v-93q0 314 -6 523l-8 35q0 44 163 50h-16z" />
<glyph unicode="&#xcc;" horiz-adv-x="586" d="M78 1436q403 -2 403 -13q18 -15 18 -57v-3q0 -69 -27 -105q-9 -6 -22 -6l-52 2q-37 0 -49 -29q-4 -8 -4 -23v-28l-3 -540q0 -360 24 -360l106 1q49 0 61 -17q13 -27 13 -70v-27q-4 -63 -18 -70l-1 -2h-2l-291 -2h-23q-146 0 -146 8l-3 49q0 117 21 117q84 12 111 19l4 3 v3h-1q-3 114 -6 722q-3 243 -13 243h-5l-86 -4h-9q-32 0 -32 18q-6 51 -6 84q0 72 30 86z" />
<glyph unicode="&#xce;" horiz-adv-x="586" d="M78 1436q403 -2 403 -13q18 -15 18 -57v-3q0 -69 -27 -105q-9 -6 -22 -6l-52 2q-37 0 -49 -29q-4 -8 -4 -23v-28l-3 -540q0 -360 24 -360l106 1q49 0 61 -17q13 -27 13 -70v-27q-4 -63 -18 -70l-1 -2h-2l-291 -2h-23q-146 0 -146 8l-3 49q0 117 21 117q84 12 111 19l4 3 v3h-1q-3 114 -6 722q-3 243 -13 243h-5l-86 -4h-9q-32 0 -32 18q-6 51 -6 84q0 72 30 86z" />
<glyph unicode="&#xd2;" horiz-adv-x="1100" d="M646 1423q193 -37 283 -139q121 -126 156 -375q8 -65 8 -131q0 -97 -17 -197v-1q-50 -298 -218 -476q-126 -119 -267 -119q-31 0 -64 6l-22 3q-267 50 -411 300q-79 152 -95 311q-5 53 -5 103q0 79 12 153q28 161 124 334q147 239 402 239q54 0 114 -11zM799 1172v-1 q4 -1 29 -45q43 -91 43 -157q0 -15 -2 -29l-2 -12q-15 -83 -103 -113q-25 -8 -48 -8q-11 0 -21 2q-52 11 -78 55h7q105 0 116 62q1 7 1 14q0 59 -74 145q-94 103 -195 122l-3 1q-17 3 -33 3q-54 0 -102 -33q-121 -127 -152 -316l-1 -1q-11 -63 -11 -125q0 -155 67 -302 q57 -99 85 -125q101 -122 217 -144q21 -4 42 -4q106 0 210 99q88 110 118 289l4 24q20 94 20 189q0 126 -35 255q-34 105 -98 155h-1z" />
<glyph unicode="&#xd4;" horiz-adv-x="1100" d="M646 1423q193 -37 283 -139q121 -126 156 -375q8 -65 8 -131q0 -97 -17 -197v-1q-50 -298 -218 -476q-126 -119 -267 -119q-31 0 -64 6l-22 3q-267 50 -411 300q-79 152 -95 311q-5 53 -5 103q0 79 12 153q28 161 124 334q147 239 402 239q54 0 114 -11zM799 1172v-1 q4 -1 29 -45q43 -91 43 -157q0 -15 -2 -29l-2 -12q-15 -83 -103 -113q-25 -8 -48 -8q-11 0 -21 2q-52 11 -78 55h7q105 0 116 62q1 7 1 14q0 59 -74 145q-94 103 -195 122l-3 1q-17 3 -33 3q-54 0 -102 -33q-121 -127 -152 -316l-1 -1q-11 -63 -11 -125q0 -155 67 -302 q57 -99 85 -125q101 -122 217 -144q21 -4 42 -4q106 0 210 99q88 110 118 289l4 24q20 94 20 189q0 126 -35 255q-34 105 -98 155h-1z" />
<glyph unicode="&#xd9;" horiz-adv-x="1063" d="M33 1566q61 0 118 -44q56 -38 75 -112q2 -8 2 -28q0 -94 -34 -450q10 -124 23 -224q8 -97 33 -184q65 -196 125 -259q43 -40 73 -40q55 0 141 150q38 70 74 166q41 115 63 201q37 134 70 369q12 88 28 278q9 51 26 51h18q120 0 149 -128q-9 -56 -9 -127l-3 -123v-81 q0 -147 2 -551q-8 -144 -8 -221q28 -149 59 -184q18 -19 43 -19q14 -4 14 -15q0 -10 -12 -26q-22 -6 -69 -11h-5q-93 0 -138 72q-46 91 -46 252v24l5 182v4h-1q-163 -475 -404 -475q-101 0 -198 87q-61 64 -75 95q-29 45 -61 132q-25 70 -53 191q-38 214 -38 309 q1 140 20 274l22 211l2 37v6q0 71 -50 94q-12 4 -26 4q-52 0 -68 -52l-2 -31q0 -16 4 -43h-1q-52 49 -52 104q0 62 75 112q41 23 89 23z" />
<glyph unicode="&#xdb;" horiz-adv-x="1063" d="M33 1566q61 0 118 -44q56 -38 75 -112q2 -8 2 -28q0 -94 -34 -450q10 -124 23 -224q8 -97 33 -184q65 -196 125 -259q43 -40 73 -40q55 0 141 150q38 70 74 166q41 115 63 201q37 134 70 369q12 88 28 278q9 51 26 51h18q120 0 149 -128q-9 -56 -9 -127l-3 -123v-81 q0 -147 2 -551q-8 -144 -8 -221q28 -149 59 -184q18 -19 43 -19q14 -4 14 -15q0 -10 -12 -26q-22 -6 -69 -11h-5q-93 0 -138 72q-46 91 -46 252v24l5 182v4h-1q-163 -475 -404 -475q-101 0 -198 87q-61 64 -75 95q-29 45 -61 132q-25 70 -53 191q-38 214 -38 309 q1 140 20 274l22 211l2 37v6q0 71 -50 94q-12 4 -26 4q-52 0 -68 -52l-2 -31q0 -16 4 -43h-1q-52 49 -52 104q0 62 75 112q41 23 89 23z" />
<glyph unicode="&#xe0;" horiz-adv-x="608" d="M550 965h7q5 -2 5 -10v-3q0 -19 -22 -76q-50 -160 -50 -255q0 -65 30 -88q17 -6 38 -6h3q107 0 159 207l22 -74q1 -93 -77 -187q-96 -76 -172 -76h-21q-78 0 -121 90l-2 3h-1q-101 -93 -196 -93h-1q-103 0 -149 105q-12 32 -12 67v13q0 145 177 299q109 83 171 83 q47 0 76 -44q58 17 136 45zM130 569q0 -33 19 -46l11 -3h5q76 0 169 218q23 70 23 85q-2 25 -21 25h-2q-52 0 -138 -99q-49 -66 -62 -145z" />
<glyph unicode="&#xe2;" horiz-adv-x="608" d="M550 965h7q5 -2 5 -10v-3q0 -19 -22 -76q-50 -160 -50 -255q0 -65 30 -88q17 -6 38 -6h3q107 0 159 207l22 -74q1 -93 -77 -187q-96 -76 -172 -76h-21q-78 0 -121 90l-2 3h-1q-101 -93 -196 -93h-1q-103 0 -149 105q-12 32 -12 67v13q0 145 177 299q109 83 171 83 q47 0 76 -44q58 17 136 45zM130 569q0 -33 19 -46l11 -3h5q76 0 169 218q23 70 23 85q-2 25 -21 25h-2q-52 0 -138 -99q-49 -66 -62 -145z" />
<glyph unicode="&#xe8;" horiz-adv-x="500" d="M287 965l15 -1q100 -9 122 -122l-2 -29q-31 -156 -290 -233v-4q18 -38 73 -43l15 -1h11q101 0 223 149q79 98 81 117l4 -1v-2q1 -14 1 -28q0 -162 -179 -305q-74 -59 -148 -59l-16 1l-16 1q-134 11 -185 160q-5 31 -5 55q0 8 1 15l1 15q13 146 143 267q73 48 139 48h12z M143 675q151 52 158 134q-3 27 -27 29h-4q-46 0 -94 -86q-32 -63 -33 -77z" />
<glyph unicode="&#xea;" horiz-adv-x="500" d="M287 965l15 -1q100 -9 122 -122l-2 -29q-31 -156 -290 -233v-4q18 -38 73 -43l15 -1h11q101 0 223 149q79 98 81 117l4 -1v-2q1 -14 1 -28q0 -162 -179 -305q-74 -59 -148 -59l-16 1l-16 1q-134 11 -185 160q-5 31 -5 55q0 8 1 15l1 15q13 146 143 267q73 48 139 48h12z M143 675q151 52 158 134q-3 27 -27 29h-4q-46 0 -94 -86q-32 -63 -33 -77z" />
<glyph unicode="&#xec;" horiz-adv-x="241" d="M118 1204h8q52 0 76 -61l3 -22q0 -58 -63 -81l-20 -3q-59 0 -82 67l-1 18v1q0 50 52 76q14 5 27 5zM99 1011h3q78 0 91 -50q4 -16 4 -36l-2 -97v-13l4 -82v-33q-7 -295 -20 -295q-8 -14 -21 -14q-119 4 -119 18q-12 6 -19 28v3q7 46 29 501v24l-1 22q6 24 51 24z" />
<glyph unicode="&#xee;" horiz-adv-x="241" d="M118 1204h8q52 0 76 -61l3 -22q0 -58 -63 -81l-20 -3q-59 0 -82 67l-1 18v1q0 50 52 76q14 5 27 5zM99 1011h3q78 0 91 -50q4 -16 4 -36l-2 -97v-13l4 -82v-33q-7 -295 -20 -295q-8 -14 -21 -14q-119 4 -119 18q-12 6 -19 28v3q7 46 29 501v24l-1 22q6 24 51 24z" />
<glyph unicode="&#xf2;" horiz-adv-x="490" d="M252 953h10q70 0 146 -48q49 -46 61 -83q33 -69 33 -154v-8q0 -149 -110 -222q-58 -31 -128 -31q-188 0 -247 143q-17 48 -17 95v14q0 142 110 238q70 56 142 56zM125 674q0 -75 61 -122q37 -24 76 -24h17q69 0 95 73q8 25 8 56v7l-1 16q-32 10 -51 10h-2q-32 -3 -32 -21 v-1h-2l-3 17q0 46 71 64q-41 78 -102 78q-53 0 -103 -58q-32 -43 -32 -95z" />
<glyph unicode="&#xf4;" horiz-adv-x="490" d="M252 953h10q70 0 146 -48q49 -46 61 -83q33 -69 33 -154v-8q0 -149 -110 -222q-58 -31 -128 -31q-188 0 -247 143q-17 48 -17 95v14q0 142 110 238q70 56 142 56zM125 674q0 -75 61 -122q37 -24 76 -24h17q69 0 95 73q8 25 8 56v7l-1 16q-32 10 -51 10h-2q-32 -3 -32 -21 v-1h-2l-3 17q0 46 71 64q-41 78 -102 78q-53 0 -103 -58q-32 -43 -32 -95z" />
<glyph unicode="&#xf9;" d="M31 957h8q39 0 103 -16v-1q-28 -202 -28 -272q0 -103 53 -131q20 -7 32 -7h5h6q70 0 99 214q27 140 27 196q73 8 103 8q50 -3 50 -24v-1q0 -50 -24 -285l-1 -40q10 -144 64 -223v-1h-1q-87 0 -153 150l-4 35h-1q0 -25 -25 -80q-49 -90 -166 -90q-123 0 -166 122 q-22 72 -22 158v20q0 115 12 261q10 7 29 7z" />
<glyph unicode="&#xfb;" d="M31 957h8q39 0 103 -16v-1q-28 -202 -28 -272q0 -103 53 -131q20 -7 32 -7h5h6q70 0 99 214q27 140 27 196q73 8 103 8q50 -3 50 -24v-1q0 -50 -24 -285l-1 -40q10 -144 64 -223v-1h-1q-87 0 -153 150l-4 35h-1q0 -25 -25 -80q-49 -90 -166 -90q-123 0 -166 122 q-22 72 -22 158v20q0 115 12 261q10 7 29 7z" />
<glyph unicode="&#x152;" horiz-adv-x="2080" d="M1308 1457q78 0 300 -22q80 -6 144 -6h42q80 0 251 11h2q13 -4 16 -50v-32l-3 -57v-10q-4 -17 -81 -20l-43 -2q-119 0 -535 32h-8q-15 0 -23 -47q-5 -35 -5 -89v-162q197 -19 321 -19h5q29 0 61 7q16 0 17 -37l-10 -86q-7 -14 -25 -24q-39 -15 -118 -15h-145 q-43 0 -93 -5l-17 1l-37 -326q-5 -41 -5 -72v-20q-4 -66 -4 -114q0 -126 27 -126q2 0 4 1q152 -17 275 -17h5q157 10 252 72q39 31 39 71q0 8 -2 17q0 98 -105 126q-29 5 -50 5h-15q73 60 146 60q11 2 21 2q94 0 145 -162q7 -25 7 -46v-16q0 -112 -140 -203 q-131 -57 -335 -57q-31 0 -64 1h-36q-274 9 -274 18q-34 6 -51 23q-24 24 -24 52q0 42 14 378q21 308 21 450v-93q0 314 -6 523l-8 35q0 44 163 50h-16zM646 1423q193 -37 283 -139q121 -126 156 -375q8 -65 8 -131q0 -97 -17 -197v-1q-50 -298 -218 -476 q-126 -119 -267 -119q-31 0 -64 6l-22 3q-267 50 -411 300q-79 152 -95 311q-5 53 -5 103q0 79 12 153q28 161 124 334q147 239 402 239q54 0 114 -11zM799 1172v-1q4 -1 29 -45q43 -91 43 -157q0 -15 -2 -29l-2 -12q-15 -83 -103 -113q-25 -8 -48 -8q-11 0 -21 2 q-52 11 -78 55h7q105 0 116 62q1 7 1 14q0 59 -74 145q-94 103 -195 122l-3 1q-17 3 -33 3q-54 0 -102 -33q-121 -127 -152 -316l-1 -1q-11 -63 -11 -125q0 -155 67 -302q57 -99 85 -125q101 -122 217 -144q21 -4 42 -4q106 0 210 99q88 110 118 289l4 24q20 94 20 189 q0 126 -35 255q-34 105 -98 155h-1z" />
<glyph unicode="&#x153;" horiz-adv-x="990" d="M777 965l15 -1q100 -9 122 -122l-2 -29q-31 -156 -290 -233v-4q18 -38 73 -43l15 -1h11q101 0 223 149q79 98 81 117l4 -1v-2q1 -14 1 -28q0 -162 -179 -305q-74 -59 -148 -59l-16 1l-16 1q-134 11 -185 160q-5 31 -5 55q0 8 1 15l1 15q13 146 143 267q73 48 139 48h12z M633 675q151 52 158 134q-3 27 -27 29h-4q-46 0 -94 -86q-32 -63 -33 -77zM252 953h10q70 0 146 -48q49 -46 61 -83q33 -69 33 -154v-8q0 -149 -110 -222q-58 -31 -128 -31q-188 0 -247 143q-17 48 -17 95v14q0 142 110 238q70 56 142 56zM125 674q0 -75 61 -122 q37 -24 76 -24h17q69 0 95 73q8 25 8 56v7l-1 16q-32 10 -51 10h-2q-32 -3 -32 -21v-1h-2l-3 17q0 46 71 64q-41 78 -102 78q-53 0 -103 -58q-32 -43 -32 -95z" />
<glyph unicode="&#x2000;" horiz-adv-x="783" />
<glyph unicode="&#x2001;" horiz-adv-x="1566" />
<glyph unicode="&#x2002;" horiz-adv-x="783" />
<glyph unicode="&#x2003;" horiz-adv-x="1566" />
<glyph unicode="&#x2004;" horiz-adv-x="522" />
<glyph unicode="&#x2005;" horiz-adv-x="391" />
<glyph unicode="&#x2006;" horiz-adv-x="261" />
<glyph unicode="&#x2007;" horiz-adv-x="261" />
<glyph unicode="&#x2008;" horiz-adv-x="195" />
<glyph unicode="&#x2009;" horiz-adv-x="313" />
<glyph unicode="&#x200a;" horiz-adv-x="87" />
<glyph unicode="&#x2010;" />
<glyph unicode="&#x2011;" />
<glyph unicode="&#x2013;" horiz-adv-x="1024" d="M204 512v204h616v-204h-616z" />
<glyph unicode="&#x2014;" horiz-adv-x="2048" d="M204 512v204h1640v-204h-1640z" />
<glyph unicode="&#x2019;" horiz-adv-x="234" d="M105 1461q68 -12 68 -79v-10q0 -73 -56 -167h-20q-44 49 -44 133q0 107 52 123z" />
<glyph unicode="&#x201c;" horiz-adv-x="430" d="M298 1453q68 -12 68 -79v-10q0 -73 -56 -167h-20q-44 49 -44 133q0 107 52 123zM145 1461q68 -12 68 -79v-10q0 -73 -56 -167h-20q-44 49 -44 133q0 107 52 123z" />
<glyph unicode="&#x201d;" horiz-adv-x="430" d="M298 1453q68 -12 68 -79v-10q0 -73 -56 -167h-20q-44 49 -44 133q0 107 52 123zM145 1461q68 -12 68 -79v-10q0 -73 -56 -167h-20q-44 49 -44 133q0 107 52 123z" />
<glyph unicode="&#x2026;" horiz-adv-x="1107" d="M848 493q54 -7 69 -64q34 42 65 52l25 3q61 -14 73 -60q3 -10 3 -21q0 -43 -51 -89q-16 -19 -145 -70v1l1 2l-2 11q-9 25 -49 67q-47 45 -54 69l-4 15q-3 11 -3 26q4 46 42 55q9 3 30 3zM479 493q54 -7 69 -64q34 42 65 52l25 3q61 -14 73 -60q3 -10 3 -21q0 -43 -51 -89 q-16 -19 -145 -70v1l1 2l-2 11q-9 25 -49 67q-47 45 -54 69l-4 15q-3 11 -3 26q4 46 42 55q9 3 30 3zM110 493q54 -7 69 -64q34 42 65 52l25 3q61 -14 73 -60q3 -10 3 -21q0 -43 -51 -89q-16 -19 -145 -70v1l1 2l-2 11q-9 25 -49 67q-47 45 -54 69l-4 15q-3 11 -3 26 q4 46 42 55q9 3 30 3z" />
<glyph unicode="&#x202f;" horiz-adv-x="313" />
<glyph unicode="&#x2039;" horiz-adv-x="799" d="M142 1402q89 -9 89 -82v-16q47 63 101 63h12q56 -12 56 -80v-9q0 -87 -110 -115q-83 -26 -110 -70l-45 52q-91 115 -91 177q0 67 98 80zM679 954q40 0 62 -29q7 -11 7 -27q0 -50 -67 -117q-14 -22 -14 -38v-7q0 -14 10 -30v-1h-1q-28 0 -103 17q-112 32 -112 88 q0 52 41 74q15 8 32 8q42 0 71 -37v-1h1q2 35 17 66q20 34 56 34z" />
<glyph unicode="&#x203a;" horiz-adv-x="384" d="M305 1109q2 -41 3 -41l34 -21l-37 -15l-10 -39l-26 31l-40 -3v1l22 33l-16 38q38 -11 40 -10zM81 1344q64 -37 65 -36l66 32l-15 -74l52 -54h-1l-73 -9l-36 -65v1l-31 67l-73 14q53 47 55 51l-10 72z" />
<glyph unicode="&#x205f;" horiz-adv-x="391" />
<glyph unicode="&#x2122;" horiz-adv-x="2605" d="M2447 1466q59 0 89 -51q5 -13 5 -22v-8l-8 -45l-2 -82v-1q0 -178 30 -923q4 -102 4 -192v-28q0 -105 -44 -128q-14 -9 -29 -9h-9q-43 0 -81 55q-24 33 -41 565q-7 239 -9 449q-3 0 -40 -83q-46 -94 -88 -225q-20 -63 -32 -143q0 -14 -30 -92q-35 -66 -68 -66 q-41 0 -62 117q-40 129 -97 251q-34 77 -110 227h-1q-4 -26 -4 -77l4 -415q0 -332 -43 -490q-19 -57 -41 -57q-38 0 -73 101q-45 116 -45 384v47l3 398v63q0 274 -63 334q-17 10 -30 10q-30 0 -65 -37q-25 -33 -25 -82q0 -52 28 -127q-30 0 -65 41q-38 57 -38 150 q0 128 145 175q54 14 94 14q78 0 138 -30q32 -23 67 -72q126 -179 289 -585q3 0 27 86q103 331 174 491q63 112 146 112zM330 1443q366 0 721 -14q236 -14 236 -44q0 -23 -149 -61q-172 -37 -374 -37h-24q-23 -996 -47 -1070q-18 -82 -35 -113q-36 -79 -69 -79h-2 q-39 0 -39 122l-2 145q0 398 14 995h-2q-386 9 -442 25q-40 8 -61 18q-15 8 -15 38q0 56 115 67q70 8 175 8z" />
</font>
</defs>
</svg>
